<?xml version="1.0" encoding="iso-8859-1"?>
<!-- Generator: Adobe Illustrator 19.0.0, SVG Export Plug-In . SVG Version: 6.00 Build 0)  -->
<svg xmlns="http://www.w3.org/2000/svg" xmlns:xlink="http://www.w3.org/1999/xlink" version="1.1" id="Layer_1" x="0px" y="0px" viewBox="0 0 512 512" style="enable-background:new 0 0 512 512;" xml:space="preserve" width="512px" height="512px">
<g>
	<g>
		<path d="M496.873,25.6c-2.327-1.164-5.818-2.327-10.473-2.327c-4.655,1.164-125.673,20.945-165.236,60.509    c-19.782,19.782-30.255,41.891-30.255,65.164c0,17.455,6.982,34.909,17.455,50.036l-25.6,25.6c-4.655,4.655-4.655,11.636,0,16.291    c2.327,2.327,4.655,3.491,8.146,3.491s5.818-1.164,8.145-3.491l93.091-93.091c4.655-4.655,4.655-11.636,0-16.291    c-4.655-4.655-11.636-4.655-16.291,0l-50.036,50.036c-6.982-10.473-11.636-22.109-11.636-33.745    c0-16.291,8.145-32.582,23.273-47.709c25.6-24.436,96.582-43.055,137.309-51.2c-8.146,39.564-26.764,110.545-51.2,136.145    C403.782,204.8,384,212.945,364.218,208.291c-5.818-1.164-12.8,2.327-13.964,9.309c-1.164,5.818,2.327,12.8,9.309,13.964    c4.655,1.164,10.473,1.164,15.127,1.164c17.455,0,40.727-6.982,65.164-31.418c40.727-39.564,60.509-159.418,60.509-165.236    C501.527,32.582,499.2,29.091,496.873,25.6z" fill="#32C79A"/>
	</g>
</g>
<g>
	<g>
		<path d="M253.673,165.236l-18.618-18.618c16.291-23.273,12.8-50.036-10.473-73.309c-26.764-24.436-97.745-37.236-105.891-38.4    c-4.655,0-8.145,1.164-10.473,3.491s-3.491,5.818-3.491,10.473c1.164,8.145,13.964,80.291,39.564,105.891    c8.145,8.145,17.455,13.964,26.764,17.455c1.164,0,2.327,0,3.491,0c4.655,0,9.309-3.491,11.636-8.145    c2.327-5.818-1.164-12.8-6.982-15.127s-11.636-5.818-17.455-11.636c-13.964-13.964-24.436-51.2-29.091-76.8    c24.436,5.818,62.836,16.291,75.636,29.091c13.964,13.964,17.455,27.927,10.473,40.727l-11.636-11.636    c-4.655-4.655-11.636-4.655-16.291,0s-4.655,11.636,0,16.291l46.545,46.545c2.327,2.327,5.818,3.491,8.145,3.491    s5.818-1.164,8.145-3.491C258.327,176.873,258.327,169.891,253.673,165.236z" fill="#32C79A"/>
	</g>
</g>
<g>
	<g>
		<path d="M508.509,317.673c-24.436-24.436-61.673-29.091-90.764-12.8l-48.873,23.273c-12.8,5.818-27.927,9.309-43.055,10.473    c6.982-9.309,11.636-22.109,11.636-34.909c0-12.8-10.473-23.273-23.273-23.273H193.164c-30.255,0-59.345,12.8-79.127,36.073    l-40.727,46.545c-5.818-9.309-16.291-13.964-26.764-13.964H11.636C4.655,349.091,0,353.745,0,360.727s4.655,11.636,11.636,11.636    h34.909c6.982,0,11.636,4.655,11.636,11.636v69.818c0,6.982-4.655,11.636-11.636,11.636H11.636C4.655,465.455,0,470.109,0,477.091    s4.655,11.636,11.636,11.636h34.909c15.127,0,27.927-9.309,32.582-23.273h64c5.818,0,11.636,0,16.291-1.164l164.073-18.618    c26.764-3.491,52.364-12.8,74.473-29.091l109.382-81.455c2.327-2.327,4.655-4.655,4.655-8.145    C512,323.491,510.836,320,508.509,317.673z M384,397.964c-18.618,13.964-39.564,22.109-62.836,24.436l-164.073,18.618    c-4.655,0-9.309,1.164-13.964,1.164H81.455v-53.527l51.2-58.182c15.127-17.455,37.236-27.927,61.673-27.927h119.855    c0,19.782-15.127,34.909-34.909,34.909h-11.636h-58.182c-6.982,0-11.636,4.655-11.636,11.636s4.655,11.636,11.636,11.636h58.182    h11.636h43.055c19.782,0,38.4-4.655,55.855-12.8l50.036-23.273c16.291-9.309,37.236-9.309,53.527,1.164L384,397.964z" fill="#32C79A"/>
	</g>
</g>
<g>
</g>
<g>
</g>
<g>
</g>
<g>
</g>
<g>
</g>
<g>
</g>
<g>
</g>
<g>
</g>
<g>
</g>
<g>
</g>
<g>
</g>
<g>
</g>
<g>
</g>
<g>
</g>
<g>
</g>
</svg>
